<?xml version="1.0" encoding="UTF-8"?>
<svg id="Layer_1" data-name="Layer 1" xmlns="http://www.w3.org/2000/svg" viewBox="0 0 512 512">
  <defs>
    <style>
      .cls-1 {
        fill: #37465a;
      }
    </style>
  </defs>
  <g>
    <path class="cls-1" d="m510,184.67v22.76h-137.51c-2.38,5.78-6.27,9.55-10.65,9.55h-201.34c-4.38,0-8.27-3.77-10.65-9.55H2.28v132.03c0,72.81,47.04,131.83,105.05,131.83h297.63c58.02,0,105.05-59.02,105.05-131.83v-153.8c0-.33,0-.66-.01-.99Zm-66.83,215.15c0,14.47-13.03,26.2-29.1,26.2H108.27c-16.07,0-29.1-11.73-29.1-26.2v-117.61c0-14.47,13.03-26.2,29.1-26.2h305.8c16.07,0,29.1,11.73,29.1,26.2v117.61Z"/>
    <path class="cls-1" d="m149.4,181.74c2.33-6.44,6.43-10.72,11.1-10.72h201.34c4.67,0,8.78,4.28,11.1,10.72h137.02c-1.65-71-48.04-127.91-105-127.91H107.33C50.36,53.83,3.98,110.74,2.33,181.74h147.07Z"/>
  </g>
  <circle class="cls-1" cx="144.83" cy="341.01" r="42.16"/>
  <circle class="cls-1" cx="260.67" cy="341.01" r="42.16"/>
  <circle class="cls-1" cx="376.5" cy="341.01" r="42.16"/>
</svg>