<?xml version="1.0" encoding="utf-8"?>
<!-- Generator: Adobe Illustrator 25.2.1, SVG Export Plug-In . SVG Version: 6.00 Build 0)  -->
<svg version="1.1"
	 id="Layer_1" shape-rendering="geometricPrecision" image-rendering="optimizeQuality" text-rendering="geometricPrecision"
	 xmlns="http://www.w3.org/2000/svg" xmlns:xlink="http://www.w3.org/1999/xlink" x="0px" y="0px" viewBox="0 0 512 512"
	 style="enable-background:new 0 0 512 512;" xml:space="preserve">
<style type="text/css">
	.st0{fill:none;}
	.st1{fill:#37465A;}
</style>
<g>
	<path class="st0" d="M189,59c-3,0-6,3-6,6v63c0,3,3,6,6,6s6-3,6-6V65C195,62,192,59,189,59z"/>
	<path class="st0" d="M285,412c-13,0-24,11-24,25c0,13,11,24,24,24c14,0,25-11,25-24C310,423,299,412,285,412z M285,449
		c-7,0-12-5-12-12s5-13,12-13s13,6,13,13S292,449,285,449z"/>
	<path class="st0" d="M323,59c-3,0-6,3-6,6v63c0,3,3,6,6,6s6-3,6-6V65C329,62,326,59,323,59z"/>
	<path class="st0" d="M227,412c-14,0-25,11-25,25c0,13,11,24,25,24c13,0,24-11,24-24C251,423,240,412,227,412z M227,449
		c-7,0-13-5-13-12s6-13,13-13s12,6,12,13S234,449,227,449z"/>
	<rect x="208" y="175" class="st1" width="96" height="27"/>
	<path class="st1" d="M285,424c-7,0-12,6-12,13s5,12,12,12s13-5,13-12S292,424,285,424z"/>
	<path class="st1" d="M227,424c-7,0-13,6-13,13s6,12,13,12s12-5,12-12S234,424,227,424z"/>
	<path class="st1" d="M436,175H316v33c0,3-3,6-6,6H202c-3,0-6-3-6-6v-33H76c-3,0-6,3-6,6v229c0,56,46,102,102,102h168
		c56,0,102-46,102-102V181C442,178,439,175,436,175z M155.7,362.9c-9.2-8.8-13.8-21.9-13.8-39.4v-54.1c0-8,6.4-14.4,14.4-14.4h2.3
		c8,0,14.4,6.5,14.4,14.4v54.4c0,8.7,1.9,15.2,5.8,19.6s9.4,6.6,16.7,6.6s12.8-2.2,16.6-6.6c3.8-4.4,5.8-11,5.8-19.6v-54.4
		c0-8,6.4-14.4,14.4-14.4h1.7c8,0,14.4,6.5,14.4,14.4v54.1h0c0,17.5-4.5,30.6-13.5,39.4c-9,8.8-22.1,13.2-39.5,13.2
		S164.9,371.7,155.7,362.9z M227,461c-14,0-25-11-25-24c0-14,11-25,25-25c13,0,24,11,24,25C251,450,240,461,227,461z M285,461
		c-13,0-24-11-24-24c0-14,11-25,24-25c14,0,25,11,25,25C310,450,299,461,285,461z M378.8,275.4L378.8,275.4l-41.3,90.4
		c-2.3,5.1-7.5,8.5-13.1,8.5h-6.1c-5.6,0-10.8-3.3-13.2-8.5l-41.2-90.4c-4.3-9.6,2.6-20.4,13.2-20.4h1.2c5.8,0,11,3.4,13.3,8.7
		l25.3,58.7c1.9,4.5,8.3,4.5,10.3,0l25.3-58.7c2.3-5.3,7.5-8.7,13.3-8.7C376.2,255,383.2,265.9,378.8,275.4z"/>
</g>
<path class="st1" d="M256,81c8.9,0,16.1-7.2,16.1-16.1V29.5c0-8.9-7.2-16.1-16.1-16.1c-8.9,0-16.1,7.2-16.1,16.1v35.4
	C239.9,73.8,247.1,81,256,81z"/>
<path class="st1" d="M162.8,94.3c4.4,7.7,14.3,10.3,21.9,5.9c7.7-4.4,10.3-14.3,5.9-22L173,47.5c-4.4-7.7-14.3-10.3-21.9-5.9
	c-7.7,4.4-10.3,14.3-5.9,22L162.8,94.3z"/>
<path class="st1" d="M80.1,140.6l30.6,17.7c7.7,4.4,17.5,1.8,21.9-5.9c4.4-7.7,1.8-17.5-5.9-22l-30.6-17.7
	c-7.7-4.4-17.5-1.8-21.9,5.9C69.8,126.3,72.4,136.1,80.1,140.6z"/>
<path class="st1" d="M327.2,100.1c7.7,4.4,17.5,1.8,21.9-5.9l17.7-30.7c4.4-7.7,1.8-17.5-5.9-22c-7.7-4.4-17.5-1.8-21.9,5.9
	l-17.7,30.7C316.9,85.9,319.5,95.7,327.2,100.1z"/>
<path class="st1" d="M401.3,158.3l30.6-17.7c7.7-4.4,10.3-14.3,5.9-22c-4.4-7.7-14.3-10.3-21.9-5.9l-30.6,17.7
	c-7.7,4.4-10.3,14.3-5.9,22C383.8,160.1,393.6,162.7,401.3,158.3z"/>
</svg>
